<svg width="174" height="72" viewBox="0 0 174 72" fill="none" xmlns="http://www.w3.org/2000/svg">
<path d="M53.5491 53.909L59.2535 59.3173C61.8282 56.371 63.8845 53.0274 65.3761 49.3553C66.2982 47.085 66.9797 44.7403 67.4223 42.3412L59.8256 40.8452C58.9075 45.816 56.6882 50.3051 53.5488 53.9096L53.5491 53.909Z" fill="#ED1C24"/>
<path d="M15.3167 54.3241C12.0964 50.7773 9.78604 46.3259 8.77263 41.3743L1.20898 43.0379C1.65109 45.1949 2.28723 47.3056 3.11945 49.3555C4.70466 53.2576 6.92752 56.7889 9.73251 59.8654L12.4248 57.1153L15.3162 54.3241H15.3167Z" fill="#ED1C24"/>
<path d="M59.1746 27.7971L66.5961 25.4899C66.2508 24.299 65.8453 23.1243 65.376 21.9693C63.6743 17.7805 61.2386 14.0183 58.1359 10.7872C57.8087 10.4463 57.4746 10.1157 57.1364 9.79035L54.543 12.7621L57.1355 9.78927C57.0294 9.68744 56.923 9.58561 56.8154 9.48486L51.6013 15.4648C55.1142 18.735 57.7702 22.9822 59.1752 27.7971H59.1746Z" fill="#ED1C24"/>
<path d="M9.11655 28.5361C10.3878 23.6838 12.9195 19.3733 16.3241 16.0103L10.9858 10.1521C10.7748 10.3611 10.5659 10.5723 10.3595 10.7872C7.25653 14.0177 4.8211 17.78 3.11958 21.9693C2.52255 23.44 2.02743 24.9421 1.63062 26.4696L7.06712 27.9573L9.11655 28.5361Z" fill="#ED1C24"/>
<path d="M36.1139 62.6175V62.6079C36.0837 62.6144 36.0813 62.6175 36.1139 62.6175Z" fill="black"/>
<path d="M20.2096 58.4441V58.441C20.1929 58.4318 20.1908 58.4315 20.2096 58.4441Z" fill="black"/>
<path d="M30.1743 62.313V62.3377C30.2081 62.3377 30.2051 62.3284 30.1743 62.313Z" fill="black"/>
<path d="M27.4655 61.5468V61.5419C27.4511 61.5396 27.4495 61.5406 27.4655 61.5468Z" fill="black"/>
<path d="M51.6014 15.4648C46.9938 11.1763 40.9142 8.56738 34.2479 8.56738C27.5819 8.56738 20.994 11.3976 16.3244 16.0104C12.9198 19.3733 10.3887 23.6838 9.1169 28.5361C8.51937 30.8165 8.19873 33.2155 8.19873 35.693C8.19873 37.6416 8.3979 39.542 8.77257 41.3739C9.78598 46.3252 12.0964 50.7767 15.3167 54.3234C20.0656 59.5536 26.7903 62.8178 34.2479 62.8178C41.7056 62.8178 48.7833 59.381 53.5491 53.9088C56.6889 50.3039 58.9082 45.8152 59.8262 40.8444C60.1342 39.1758 60.2978 37.4545 60.2978 35.693C60.2978 32.9462 59.9044 30.2956 59.1752 27.7971C57.7708 22.9823 55.1146 18.7351 51.6014 15.4648ZM52.3389 54.5309C49.9888 56.9779 47.2529 58.8987 44.2065 60.2406C43.9614 60.3489 43.7145 60.4511 43.467 60.5509V60.9201C43.8982 60.7621 40.2691 62.4133 40.2629 61.7986C40.2623 61.7322 40.262 61.6636 40.2608 61.5939C39.8189 61.7047 39.3737 61.8035 38.9258 61.8897C38.9258 62.0017 38.9258 62.1015 38.9258 62.178C39.1697 62.2407 36.3982 62.5489 36.1142 62.6072V62.6171C36.0813 62.6171 36.0837 62.6131 36.1142 62.6072V62.2639C35.5845 62.3034 35.0512 62.325 34.5162 62.3303L34.5254 62.7162C34.5254 62.7162 31.4589 62.5371 31.6009 62.5371C31.6009 62.4235 31.6009 62.3077 31.6009 62.1932C31.1228 62.1422 30.6473 62.0761 30.1742 61.9974V62.3127C30.2053 62.3281 30.2083 62.3374 30.1742 62.3374V62.3127C29.9169 62.1824 27.6395 61.5685 27.4656 61.5414V61.5463C27.4501 61.5401 27.4517 61.5392 27.4656 61.5414V61.3876C26.3878 61.0795 25.3276 60.6978 24.2895 60.2406C23.8469 60.0457 23.4115 59.837 22.9817 59.6175C22.9827 59.7348 22.9838 59.8441 22.9853 59.9411C22.9874 60.0905 20.412 58.5504 20.2102 58.4405V58.4436C20.1912 58.4312 20.1932 58.4312 20.2102 58.4405V57.9693C18.7583 56.9757 17.4027 55.8277 16.1571 54.5303C14.205 52.4974 12.6023 50.1857 11.3763 47.6424C11.681 47.5998 12.4561 47.4924 12.7984 47.4673C14.6054 47.3364 16.4181 47.3151 18.2287 47.3509C21.7836 47.4216 25.3307 47.7122 28.884 47.8339C36.1735 48.0836 43.4631 47.6548 50.7355 47.1586C52.9344 47.0085 55.2539 46.6973 57.5236 46.7668C56.2543 49.6571 54.5137 52.2661 52.3392 54.5303L52.3389 54.5309ZM33.2881 36.1512C33.5392 36.1212 33.8048 36.0987 34.0956 36.082V37.4057C32.253 37.5206 30.7338 38.2082 29.5773 39.4503C29.2232 39.832 28.9041 40.2698 28.6241 40.749C28.0209 40.741 27.4414 40.8873 26.9077 41.1921C26.6333 41.3495 26.3693 41.5484 26.1181 41.787C26.2468 41.503 26.3832 41.2276 26.5273 40.9626C28.0549 38.1486 30.3292 36.53 33.2875 36.1521V36.1506L33.2881 36.1512ZM29.1635 41.7651C29.2026 41.7735 29.2376 41.7821 29.2726 41.7914C29.9519 41.9701 30.5557 42.4231 31.0673 43.1385L30.7528 43.9172C30.1887 45.465 29.9163 46.0344 29.7945 46.961C29.6349 46.9567 29.4749 46.9539 29.3153 46.9489C28.8989 46.9369 28.4831 46.9205 28.0667 46.9035C28.0924 45.801 28.2669 43.6251 29.1635 41.7645V41.7651ZM27.1115 46.8612C26.3441 46.8251 25.5772 46.7856 24.8099 46.7439C24.833 46.3472 24.8803 45.947 24.9395 45.5722C24.9992 45.1961 25.0816 44.8237 25.2185 44.4705C25.3549 44.1194 25.5582 43.7934 25.7738 43.4945C26.1964 42.9075 26.7358 42.3823 27.3482 42.0362L27.3822 42.0174C27.6231 41.8797 27.868 41.7877 28.1249 41.7392C27.3045 43.6402 27.1326 45.6815 27.1115 46.8612ZM31.6691 44.188C32.2583 45.457 32.5551 46.3021 32.7024 47.0048C32.0538 47.002 31.4049 46.9968 30.7564 46.9844C30.8613 46.4358 31.1198 45.6676 31.6691 44.188ZM32.1585 43.0764C32.7326 41.9918 33.3978 41.4091 34.1374 41.3412V47.0036C33.9817 47.0048 33.827 47.007 33.6714 47.007C33.5075 46.0643 33.1073 44.6777 32.1579 43.0764H32.1585ZM31.552 42.2156C31.0003 41.5657 30.3612 41.1272 29.6469 40.9092C29.8422 40.6116 30.053 40.3383 30.2768 40.0972C31.2556 39.044 32.5542 38.4589 34.1374 38.3564V40.3887C33.1358 40.4433 32.2675 41.0565 31.552 42.2162V42.2156ZM24.4666 43.3803C24.4254 43.5214 23.9704 45.1053 23.8803 46.693C23.3631 46.6646 22.8453 46.6365 22.3281 46.6099C22.4315 46.0418 22.5854 45.4839 22.7614 44.9377C23.0069 44.1772 23.3152 43.4843 23.7017 42.7961C24.1125 42.0655 24.5844 41.3748 25.1079 40.7339C25.2715 40.5335 25.4403 40.3374 25.6143 40.1469C25.7774 39.9684 26.0338 39.789 26.1599 39.5822C25.5726 40.5437 24.8567 41.9102 24.4666 43.3803ZM43.8769 45.7877C43.9187 46.0792 43.9522 46.382 43.9718 46.6837C43.231 46.7239 42.4905 46.7609 41.7498 46.7949C41.6772 45.5187 41.4231 43.4392 40.5822 41.5518C41.0799 41.528 41.5203 41.6537 41.9238 41.9334C43.1169 42.759 43.67 44.3408 43.8769 45.7871V45.7877ZM42.4502 39.2391C42.6731 39.4633 42.8892 39.6973 43.0979 39.9413C43.1252 39.9734 43.3635 40.2618 43.3881 40.2929C44.5637 41.7694 45.2141 43.2271 45.4482 43.8122C45.4482 43.8122 46.0648 45.3675 46.3221 46.5488C45.8481 46.5778 45.3741 46.6056 44.9002 46.6325C44.8652 46.0717 44.7863 45.5138 44.6974 45.0219C44.6974 45.0219 44.1149 42.1508 43.1332 40.3498C42.9206 39.9595 42.6921 39.5896 42.4502 39.2391ZM36.7035 43.6155C35.9639 45.0991 35.5753 46.1563 35.3812 46.9925C35.2833 46.994 35.1861 46.9962 35.0883 46.9974V41.5484C35.6814 41.8723 36.2239 42.5667 36.7035 43.6155ZM35.0883 40.5131V38.3576C36.3119 38.4487 37.3586 38.901 38.2022 39.7029C38.5621 40.0441 38.8914 40.4557 39.1831 40.9274C38.4693 41.2523 37.8296 41.8244 37.2762 42.6321C36.6561 41.4977 35.9206 40.7863 35.0883 40.5131ZM37.1887 44.8722C37.5649 46.0121 37.7899 46.5509 37.9105 46.94C37.3971 46.9545 36.884 46.9662 36.3709 46.9764C36.5286 46.4562 36.7844 45.9127 37.1887 44.8722ZM37.7576 43.6535C38.2923 42.7072 38.9222 42.0736 39.6315 41.7698C40.4642 43.5544 40.7188 45.6064 40.795 46.8381C40.1627 46.865 39.5302 46.8881 38.8976 46.9088C38.7571 46.1554 38.4198 45.2748 37.7582 43.6541L37.7576 43.6535ZM40.126 40.6502C39.7569 40.0135 39.3313 39.4627 38.8585 39.0134C37.8225 38.03 36.5405 37.4878 35.0468 37.4004V36.074C37.5453 36.1673 39.5909 37.1781 41.1507 39.0832C41.4092 39.4432 41.9095 40.1793 42.3975 41.1081C41.7308 40.6702 40.9678 40.5168 40.126 40.6502ZM57.9101 45.838C55.9786 45.7621 54.0151 45.9689 52.1139 46.1008C50.4735 46.2144 48.8328 46.3252 47.1921 46.4287C46.9203 44.8879 46.3031 43.4093 46.2471 43.2774C45.2274 40.6888 43.0469 38.5243 43.0469 38.5243C41.3588 36.8425 38.7607 35.1823 35.0607 35.1116C35.0607 35.1116 34.7275 29.698 35.3195 29.7473C35.6954 30.3813 36.3668 31.0575 37.037 30.8674C37.3438 30.786 37.8735 30.8101 38.0092 30.548C37.7149 29.5812 36.8155 29.0635 35.9746 29.1723C35.8614 29.0303 35.4745 29.0067 34.986 29.2173C34.1142 26.5795 37.3947 27.5774 38.1518 25.9953C39.1184 23.7186 36.4003 24.6072 35.8708 25.9374C35.8347 26.2166 35.6453 26.4412 35.704 26.7718C35.704 26.9064 35.6663 26.9471 35.5273 26.9198C35.2804 26.7954 34.8701 27.4696 34.9009 26.8383C34.8245 26.4771 34.775 26.3185 34.1436 26.55V35.1323C33.8528 35.1468 33.562 35.1703 33.2484 35.2042C29.8129 35.5911 27.3601 37.1593 25.7455 38.6701C25.7455 38.6701 23.4403 40.69 22.4207 43.2781C22.3641 43.4124 21.728 44.9367 21.4634 46.5031C20.3857 46.4521 19.3075 46.4095 18.2287 46.3879C16.1185 46.3462 13.9976 46.3688 11.8951 46.5793C11.5961 46.6093 10.9744 46.7115 10.9744 46.7115L11.0227 46.8788C10.9028 46.6093 10.7855 46.3382 10.6743 46.0637C9.34028 42.7794 8.66399 39.2907 8.66399 35.6939C8.66399 32.0974 9.34028 28.6085 10.6743 25.3243C11.9631 22.1521 13.8077 19.3026 16.1577 16.8561C18.5077 14.409 21.2437 12.4883 24.29 11.1463C27.444 9.75717 30.7946 9.05294 34.2485 9.05294C37.7024 9.05294 41.0529 9.75717 44.2068 11.1463C47.2531 12.4883 49.9897 14.409 52.3392 16.8561C54.6892 19.3031 56.5338 22.1521 57.8227 25.3243C59.1566 28.6085 59.833 32.0974 59.833 35.6939C59.833 39.2907 59.185 42.6204 57.9107 45.8386L57.9101 45.838Z" fill="black"/>
<path d="M34.248 0C15.3332 0 0 15.9664 0 35.6624C0 55.3584 15.3332 71.3248 34.248 71.3248C53.1627 71.3248 68.496 55.3584 68.496 35.6624C68.496 15.9664 53.1624 0 34.248 0ZM65.3762 49.3548C63.8846 53.0269 61.8283 56.3711 59.2536 59.3167C58.891 59.7311 58.5184 60.1383 58.1361 60.5363C55.0337 63.7675 51.4206 66.304 47.3979 68.0754C43.2331 69.9098 38.809 70.8398 34.248 70.8398C29.687 70.8398 25.2628 69.9098 21.0981 68.0754C17.0754 66.3037 13.4624 63.7669 10.3594 60.5363C10.1468 60.3153 9.93838 60.0911 9.73198 59.8651C6.927 56.7883 4.70413 53.2569 3.11892 49.3548C2.28618 47.3049 1.65005 45.1945 1.20846 43.0372C0.715397 40.631 0.464235 38.1662 0.464235 35.6618C0.464235 32.5229 0.856932 29.4466 1.62997 26.469C2.02679 24.9416 2.52139 23.4394 3.11892 21.9688C4.82044 17.78 7.25641 14.0178 10.3589 10.7867C10.5653 10.5718 10.7742 10.3606 10.9852 10.1516C13.9446 7.22218 17.342 4.90161 21.0975 3.24772C25.2623 1.41325 29.6864 0.483408 34.2474 0.483408C38.8085 0.483408 43.2326 1.41325 47.3973 3.24772C50.8622 4.77406 54.0223 6.86849 56.8149 9.48436C56.9225 9.58511 57.0289 9.68638 57.135 9.78877L57.1365 9.78982C57.4747 10.1151 57.8088 10.4458 58.1361 10.7867C61.239 14.0172 63.675 17.7795 65.3762 21.9688C65.8448 23.1238 66.2506 24.2985 66.5962 25.4894C67.548 28.7698 68.0306 32.1771 68.0306 35.6618C68.0306 37.925 67.8255 40.1555 67.4224 42.34C66.9798 44.74 66.2977 47.0848 65.3762 49.3542V49.3548Z" fill="black"/>
<path d="M47.5776 27.8754C48.1313 27.7822 49.1252 26.7698 48.3009 26.4236C47.6413 26.2317 46.7171 27.7393 47.5776 27.8754Z" fill="black"/>
<path d="M47.9121 20.0705C46.9873 19.6943 45.8333 20.5432 45.8262 21.7008C46.8441 22.5288 47.934 21.2838 47.9121 20.0705Z" fill="black"/>
<path d="M46.1494 22.3579C45.3281 21.889 45.5181 22.9239 45.8649 23.4335C46.9569 24.3811 47.3796 22.4565 46.1494 22.3579Z" fill="black"/>
<path d="M47.538 23.2363C48.092 23.143 49.0856 22.1306 48.2613 21.7844C47.602 21.5926 46.6775 23.1001 47.538 23.2363Z" fill="black"/>
<path d="M38.5798 14.0735C37.8435 14.7498 37.7282 15.5832 38.514 16.4686C39.3233 15.7847 40.1174 14.8624 38.5798 14.0735Z" fill="black"/>
<path d="M45.7474 23.6253C45.0037 22.7935 43.8844 23.2791 43.5168 24.3027C43.8153 25.5477 45.9425 24.9206 45.7474 23.6253Z" fill="black"/>
<path d="M44.9225 16.8286C45.1323 15.7353 43.9461 16.3415 43.4741 16.9219C42.7968 18.5007 45.3505 18.2349 44.9225 16.8286Z" fill="black"/>
<path d="M42.943 15.0462C43.2368 14.095 42.3229 14.4664 41.9132 14.9203C41.2255 16.2398 43.0568 16.3705 42.943 15.0462Z" fill="black"/>
<path d="M47.2805 19.4152C48.3227 19.8965 49.2173 18.8311 49.5304 17.8584C48.5818 17.2726 45.6125 18.4312 47.2805 19.4152Z" fill="black"/>
<path d="M40.4752 17.4693C41.654 16.9408 41.2088 15.2971 40.2268 14.7039C39.4572 15.3759 39.5521 16.8792 40.4752 17.4693Z" fill="black"/>
<path d="M47.7453 15.7853C47.7746 15.4798 47.0603 15.6031 46.8762 15.7033C46.053 15.9418 45.8117 16.7457 45.8633 17.5051C46.9657 17.6375 47.8093 16.7832 47.7453 15.7853Z" fill="black"/>
<path d="M43.0491 23.283C42.276 23.2514 41.3512 23.6495 41.3479 24.8313C41.4235 25.9219 43.4875 24.3956 43.0491 23.283Z" fill="black"/>
<path d="M43.8476 26.6701C45.4231 27.0163 44.1426 25.0955 43.3336 25.021C41.8379 25.1957 42.8537 26.9509 43.8476 26.6701Z" fill="black"/>
<path d="M40.1658 22.2444C40.2642 23.5097 42.9346 21.7379 42.367 20.4447C41.3681 20.4072 40.1687 20.8708 40.1658 22.2444Z" fill="black"/>
<path d="M39.239 16.9446C38.4659 16.913 37.5417 17.3112 37.5378 18.4929C37.614 19.5835 39.6774 18.0572 39.239 16.9446Z" fill="black"/>
<path d="M41.9223 20.002C42.821 19.7431 42.0293 19.1236 41.4528 19.0046C40.0533 19.1108 40.9577 20.8321 41.9223 20.002Z" fill="black"/>
<path d="M47.2788 24.7326C48.1189 25.7117 48.8955 24.9989 49.8337 24.6098C49.494 23.7111 47.1908 23.1858 47.2788 24.7326Z" fill="black"/>
<path d="M42.9162 18.6486C41.9018 19.9311 44.0289 20.482 44.1069 19.0151C44.6019 18.0457 43.4687 18.2466 42.9162 18.6486Z" fill="black"/>
<path d="M37.5005 20.0019C37.419 19.7784 37.5142 19.3261 37.2349 19.3079C36.148 19.7173 35.2282 21.3326 36.2481 22.256V22.2582C36.9951 21.7689 37.8977 21.0373 37.5008 20.0024L37.5005 20.0019Z" fill="black"/>
<path d="M39.067 21.2281C40.5628 20.5877 40.9529 19.8042 39.0552 19.4971C37.7145 19.817 37.5319 20.9393 39.067 21.2281Z" fill="black"/>
<path d="M44.7294 21.2265C45.8543 21.0926 46.1493 19.6933 45.98 18.6787C44.8877 18.6712 42.8282 21.2528 44.7294 21.2265Z" fill="black"/>
<path d="M39.7723 25.0736C41.9083 26.5029 40.8145 22.3151 39.4755 22.6726C39.3374 23.4599 39.2562 24.3753 39.7723 25.0736Z" fill="black"/>
<path d="M42.272 26.1266C41.3178 25.2686 39.9652 25.3377 39.2906 26.5286C38.5762 27.4386 41.7924 28.0511 42.272 26.1266Z" fill="black"/>
<path d="M39.7953 18.2039C38.9739 17.7349 39.1636 18.7698 39.5107 19.2795C40.6028 20.227 41.0255 18.3025 39.7953 18.2039Z" fill="black"/>
<path d="M44.5843 22.4417C44.0893 21.4701 43.3732 20.4765 42.4036 21.9856C42.9039 22.879 43.6477 23.1357 44.5843 22.4417Z" fill="black"/>
<path d="M41.566 18.5041C42.803 18.4875 42.8323 17.3872 43.1916 16.3748C42.3444 16.0436 40.4417 17.5399 41.566 18.5041Z" fill="black"/>
<path d="M34.1102 19.6279C33.0472 20.3745 33.4009 22.8515 34.9206 23.2331C36.0562 22.1538 35.699 20.196 34.1102 19.6279Z" fill="black"/>
<path d="M31.5208 26.5902C32.4972 27.5227 34.0602 27.102 34.4971 25.79C33.4688 24.8687 31.9799 25.2745 31.5208 26.5902Z" fill="black"/>
<path d="M39.5208 21.4629C38.1507 20.7373 35.7272 22.9834 36.9968 24.1484C38.4566 24.515 39.6711 22.9818 39.5208 21.4629Z" fill="black"/>
<path d="M35.3767 23.2233C34.7744 24.0015 34.3689 26.1581 35.6495 25.4362C36.6051 24.7813 36.5346 22.2667 35.3767 23.2233Z" fill="black"/>
<path d="M30.3958 29.1541C31.5367 30.2265 33.2891 29.5882 33.6027 27.8143C32.7775 26.7756 30.5475 27.4782 30.3958 29.1541Z" fill="black"/>
<path d="M23.9422 24.2899C22.9433 24.2529 21.744 24.7159 21.741 26.0895C21.8393 27.3548 24.5099 25.5831 23.9422 24.2899Z" fill="black"/>
<path d="M21.9868 27.5949C22.8772 28.7156 24.0105 28.7991 25.1562 28.1405C24.6575 26.194 23.1685 26.8564 21.9868 27.5949Z" fill="black"/>
<path d="M29.0936 30.444C29.6413 29.9027 30.2147 29.2221 30.1895 28.3298C29.2732 25.805 27.8234 29.8646 29.0936 30.444Z" fill="black"/>
<path d="M28.6067 26.8542C27.8491 26.0798 25.4616 28.4008 26.5331 29.1956C27.3597 29.3596 29.4729 28.0289 28.6067 26.8542Z" fill="black"/>
<path d="M21.2601 23.2599C22.0501 22.2325 21.2946 21.4956 20.8149 20.5427C20.0331 21.0229 19.8488 23.5557 21.2601 23.2599Z" fill="black"/>
<path d="M26.7363 27.0553C26.5566 25.9406 25.3837 25.529 24.5489 26.0226C24.1469 27.1319 26.2226 28.1309 26.7363 27.0553Z" fill="black"/>
<path d="M35.6643 18.8632C37.2063 18.9372 38.0108 16.9703 37.474 15.4065C35.9507 15.7495 35.2336 17.0282 35.6643 18.8632Z" fill="black"/>
<path d="M46.4956 29.0178C46.1886 29.8421 46.9821 30.5795 47.6914 30.8491C48.0779 30.1009 47.1413 27.7021 46.4956 29.0178Z" fill="black"/>
<path d="M46.0219 25.2017C44.1242 25.5088 44.5137 26.2923 46.01 26.9327C47.5452 26.6444 47.3626 25.5222 46.0219 25.2017Z" fill="black"/>
<path d="M49.0873 27.9661C49.5375 28.5186 51.0816 27.817 50.4345 27.19C49.9256 26.9349 48.5783 27.1863 49.0873 27.9661Z" fill="black"/>
<path d="M37.9416 27.5823H37.9431C36.9377 27.4001 35.414 28.0421 36.8203 28.9259C37.6417 29.6312 38.7162 29.4489 39.5945 29.0245C40.131 28.4441 38.528 27.5877 37.9416 27.5823Z" fill="black"/>
<path d="M43.0388 27.519C43.9293 28.6391 45.0625 28.7232 46.2082 28.064C45.7093 26.1175 44.2204 26.7799 43.0388 27.519Z" fill="black"/>
<path d="M38.7615 30.9248C39.2046 31.8054 39.5778 30.8316 39.5514 30.1992C39.129 28.7586 37.7883 30.1081 38.7615 30.9248Z" fill="black"/>
<path d="M40.6283 30.5357C41.0478 30.0983 41.4527 29.7468 41.37 29.0356C40.7297 24.768 38.7837 31.3267 40.6283 30.5357Z" fill="black"/>
<path d="M41.8791 27.8149C41.4443 29.3412 42.3069 29.9849 43.5163 30.4576C44.1566 29.3128 43.0352 27.1766 41.8791 27.8149Z" fill="black"/>
<path d="M49.0481 29.8641C49.9267 30.1899 49.5905 29.1995 49.1747 28.7537C47.9596 28.0007 47.8191 29.9723 49.0481 29.8641Z" fill="black"/>
<path d="M21.0362 24.4355C20.0527 23.832 19.0522 24.7807 18.6394 25.7094C19.52 26.4067 22.5916 25.614 21.0362 24.4355Z" fill="black"/>
<path d="M29.583 20.8525C29.3777 20.8766 28.7132 21.1858 28.8913 21.426C29.3344 22.3043 30.4719 22.5353 31.336 21.785C31.0013 21.1151 30.3958 20.577 29.583 20.8525Z" fill="black"/>
<path d="M27.0347 20.5989C28.0455 21.1852 28.9132 20.8668 29.555 19.9515C28.5715 18.5742 27.678 19.609 27.0347 20.5989Z" fill="black"/>
<path d="M31.0534 16.1461C30.2371 17.5207 31.0801 19.2973 32.7522 19.3713C33.5834 18.3386 32.6117 16.0619 31.0534 16.1461Z" fill="black"/>
<path d="M30.4661 22.9593C29.6741 21.9802 28.482 22.5515 28.0903 23.7557C28.4079 25.2204 30.673 24.4835 30.4661 22.9593Z" fill="black"/>
<path d="M31.1292 20.3406C31.1292 21.8722 32.2799 22.667 33.3135 21.8519C33.2773 20.2907 32.1803 19.5383 31.1292 20.3406Z" fill="black"/>
<path d="M35.0352 16.4955C35.9912 15.8406 35.9206 13.326 34.7625 14.2826C34.1605 15.0608 33.755 17.2174 35.0352 16.4955Z" fill="black"/>
<path d="M33.9171 17.525C33.4307 18.0422 34.1688 19.6634 34.7121 18.9318C34.919 18.3696 34.6102 16.9328 33.9171 17.525Z" fill="black"/>
<path d="M34.052 14.4219C34.7678 14.0424 34.2316 11.768 33.3945 12.373C33.0133 12.9405 33.0631 14.7906 34.052 14.4219Z" fill="black"/>
<path d="M27.1638 21.658C25.2662 21.9651 25.6559 22.7486 27.152 23.389C28.6873 23.1007 28.5046 21.9785 27.1638 21.658Z" fill="black"/>
<path d="M25.4218 23.6977C25.1886 23.8655 25.482 24.2041 25.515 24.4421C25.6549 25.5531 26.7759 25.6946 27.6493 25.7112C28.1012 24.3601 26.552 23.463 25.4218 23.6977Z" fill="black"/>
<path d="M31.1617 26.6345C31.1116 25.44 29.0725 25.1532 28.4734 26.1468C29.0411 27.1908 30.2211 27.3173 31.1617 26.6345Z" fill="black"/>
<path d="M26.6768 20.8587C26.6402 19.7279 25.5301 19.1475 24.6407 19.513C24.1019 20.5527 26.0314 21.8486 26.6768 20.8587Z" fill="black"/>
<path d="M25.5649 21.8184C24.7007 21.7868 23.6652 22.1871 23.6621 23.3742C23.7465 24.4685 26.0548 22.9369 25.5649 21.8184Z" fill="black"/>
<path d="M30.632 23.499C30.2505 24.0666 30.3006 25.9166 31.2891 25.5478C32.005 25.1684 31.4688 22.8939 30.632 23.499Z" fill="black"/>
<path d="M27.7641 18.8005C27.8048 17.9452 25.9823 16.2388 25.9417 17.7265C26.0034 18.6124 27.0173 18.8959 27.7641 18.8005Z" fill="black"/>
<path d="M22.8377 22.8471C22.8429 21.8455 22.0811 22.5041 21.8212 23.0722C21.5479 24.5541 23.3251 24.069 22.8377 22.8471Z" fill="black"/>
<path d="M19.824 23.2192C19.648 21.8552 18.0607 21.9051 17.281 22.7797C17.6881 23.753 19.0613 24.0322 19.824 23.2192Z" fill="black"/>
<path d="M33.3072 15.8533C33.8082 14.6335 32.894 14.1464 32.1915 13.3704C31.5604 14.0628 32.0252 16.5522 33.3072 15.8533Z" fill="black"/>
<path d="M34.4262 24.9952C34.7401 23.3649 33.0683 22.1944 31.5518 22.516C31.6223 24.1929 32.6782 25.1608 34.4262 24.9952Z" fill="black"/>
<path d="M29.9573 18.6926C30.5428 17.1518 29.0977 15.671 27.5521 15.6876C27.337 17.3501 28.2109 18.5104 29.9573 18.6926Z" fill="black"/>
<path d="M31.6807 15.223C31.7044 14.4872 30.1337 13.8569 30.2063 14.7926C30.4159 15.3532 31.5553 16.1678 31.6807 15.223Z" fill="black"/>
<path d="M27.3519 48.9395L25.2468 53.8115L23.0975 48.9395C23.0975 48.9395 20.8227 48.9299 20.2097 48.9299V58.4411C20.4115 58.551 22.9869 60.0911 22.9848 59.9416C22.9838 59.8441 22.9822 59.7348 22.9812 59.6178C22.9684 58.144 22.975 55.2695 22.975 55.2695L25.2139 58.1329L27.4651 55.2759V61.5423C27.639 61.5704 29.9163 62.1833 30.1739 62.3136V48.9605C29.2834 48.9605 27.3519 48.9401 27.3519 48.9401V48.9395Z" fill="black"/>
<path d="M20.2096 58.4441V58.441C20.1929 58.4318 20.1908 58.4315 20.2096 58.4441Z" fill="black"/>
<path d="M30.1743 62.313V62.3377C30.2081 62.3377 30.2051 62.3284 30.1743 62.313Z" fill="black"/>
<path d="M27.4655 61.5468V61.5419C27.4511 61.5396 27.4495 61.5406 27.4655 61.5468Z" fill="black"/>
<path d="M38.9252 60.7086C38.8929 57.9346 38.8713 55.1601 38.8224 52.3859C38.7776 49.879 37.6346 48.7764 35.1867 48.7406C33.9545 48.7224 32.8435 48.9882 32.1704 50.1217C31.844 50.6716 31.6359 51.3892 31.6258 52.0354C31.5743 55.2172 31.5989 58.9045 31.6009 62.1934C31.6009 62.3083 31.6009 62.424 31.6009 62.5377C31.4589 62.5377 34.5254 62.7164 34.5254 62.7164L34.5162 62.3308L34.513 62.2033V56.2797H36.1143V62.6078C36.3988 62.5488 39.1698 62.2413 38.9258 62.1786C38.9258 62.102 38.9258 62.0023 38.9258 61.8902C38.927 61.5157 38.9285 61 38.9249 60.7089L38.9252 60.7086ZM34.0915 54.1507C34.0915 54.1507 34.1472 53.1031 34.1472 52.2889C34.1472 51.475 34.3156 50.8559 35.2932 50.8559C36.2711 50.8559 36.2711 51.5951 36.2711 52.154C36.2711 52.7128 36.2912 54.1507 36.2912 54.1507H34.0915Z" fill="black"/>
<path d="M36.1139 62.6167V62.6072C36.0837 62.6137 36.0813 62.6167 36.1139 62.6167Z" fill="black"/>
<path d="M44.6181 57.3064C46.1201 57.1168 47.8251 56.1195 48.4571 54.6353C48.8792 53.6451 48.8792 52.4826 48.5371 51.4671C48.3095 50.7921 47.925 50.1712 47.4 49.7072C46.8674 49.236 46.1984 48.9427 45.4973 48.9142L40.2987 48.8982C40.2987 48.8982 40.2308 57.8579 40.2622 61.5933C40.2625 61.6631 40.2631 61.7322 40.264 61.798C40.2702 62.4124 43.8993 60.7615 43.468 60.9196V57.2996C43.468 57.3777 44.5179 57.3188 44.6193 57.3064H44.6181ZM43.3207 51.2445C44.7856 51.2445 45.1947 51.1815 45.7072 52.0865C45.9277 52.4755 45.9162 53.2113 45.7057 53.6189C45.2421 54.5164 44.3697 54.7196 43.3204 54.5513V51.2445H43.3207Z" fill="black"/>
<path d="M78.7786 20.8933V10.1104H81.3675V11.2846H81.7431C81.9239 10.9223 82.2233 10.6072 82.6406 10.3392C83.0583 10.0713 83.6085 9.93677 84.2902 9.93677C85.0277 9.93677 85.6191 10.0857 86.0649 10.3827C86.5101 10.6796 86.8513 11.0675 87.0882 11.5456H87.4637C87.7006 11.082 88.0346 10.6978 88.4659 10.3934C88.8972 10.089 89.5096 9.93677 90.3032 9.93677C90.9431 9.93677 91.5247 10.0782 92.0464 10.3607C92.569 10.6431 92.9864 11.0708 93.2991 11.6431C93.6127 12.2161 93.7692 12.9363 93.7692 13.8062V20.8933H91.1385V14.0018C91.1385 13.408 90.9923 12.9621 90.7001 12.6646C90.4078 12.3677 89.9969 12.2187 89.4684 12.2187C88.8699 12.2187 88.4066 12.4181 88.0803 12.8168C87.753 13.2156 87.59 13.7842 87.59 14.5233V20.8928H84.9593V14.0012C84.9593 13.4074 84.8131 12.9615 84.5208 12.6641C84.2286 12.3672 83.8183 12.2182 83.2892 12.2182C82.6907 12.2182 82.228 12.4176 81.9011 12.8163C81.5738 13.215 81.4108 13.7836 81.4108 14.5227V20.8922H78.7803L78.7786 20.8933Z" fill="black"/>
<path d="M99.8226 21.1976C99.0845 21.1976 98.4238 21.0636 97.839 20.7957C97.2544 20.5277 96.7917 20.1365 96.4508 19.6214C96.1097 19.107 95.9392 18.4799 95.9392 17.7409C95.9392 17.0018 96.1097 16.3823 96.4508 15.8823C96.7917 15.3823 97.2651 15.0055 97.8704 14.752C98.4763 14.4985 99.1678 14.3715 99.9477 14.3715H102.787V13.7627C102.787 13.2557 102.634 12.8387 102.328 12.5129C102.022 12.187 101.535 12.0236 100.866 12.0236C100.198 12.0236 99.7248 12.1795 99.4047 12.4909C99.084 12.8028 98.8756 13.2048 98.7783 13.6973L96.3563 12.8494C96.5235 12.299 96.7911 11.7953 97.1602 11.3387C97.5286 10.882 98.0234 10.5128 98.6423 10.2298C99.2615 9.94738 100.016 9.80591 100.908 9.80591C102.271 9.80591 103.35 10.1612 104.143 10.8713C104.937 11.582 105.334 12.6104 105.334 13.9583V17.9799C105.334 18.4145 105.529 18.6321 105.918 18.6321H106.754V20.8932H105C104.485 20.8932 104.06 20.763 103.727 20.502C103.392 20.241 103.225 19.8932 103.225 19.4585V19.4366H102.829C102.773 19.6107 102.648 19.839 102.453 20.1215C102.258 20.4039 101.952 20.6542 101.534 20.8712C101.117 21.0888 100.546 21.1971 99.8226 21.1971V21.1976ZM100.282 18.9799C101.019 18.9799 101.621 18.7661 102.088 18.339C102.554 17.9118 102.787 17.3427 102.787 16.632V16.4144H100.135C99.648 16.4144 99.2657 16.5232 98.9873 16.7403C98.7084 16.9579 98.57 17.2623 98.57 17.6535C98.57 18.0447 98.7161 18.3642 99.0078 18.6102C99.3 18.8567 99.7248 18.9799 100.282 18.9799Z" fill="black"/>
<path d="M108.674 20.8933V10.1104H111.263V11.5237H111.639C111.806 11.1469 112.119 10.7883 112.578 10.4475C113.037 10.1072 113.734 9.93677 114.666 9.93677C115.473 9.93677 116.18 10.1292 116.785 10.5129C117.391 10.8971 117.86 11.4261 118.195 12.0998C118.528 12.774 118.696 13.5602 118.696 14.4584V20.8933H116.065V14.6754C116.065 13.864 115.874 13.2552 115.491 12.8495C115.108 12.4438 114.562 12.2407 113.852 12.2407C113.044 12.2407 112.419 12.5199 111.973 13.0778C111.527 13.6357 111.305 14.415 111.305 15.415V20.8933H108.674Z" fill="black"/>
<path d="M120.616 15.5452V15.1973C120.616 14.0671 120.832 13.0997 121.264 12.2953C121.695 11.4909 122.269 10.8751 122.986 10.4474C123.703 10.0203 124.486 9.80591 125.335 9.80591C126.281 9.80591 126.998 9.98008 127.485 10.3279C127.972 10.6757 128.328 11.0386 128.55 11.4147H128.925V10.1103H131.514V22.8065C131.514 23.5455 131.305 24.1361 130.888 24.5783C130.47 25.0204 129.914 25.2412 129.218 25.2412H122.286V22.8499H128.299C128.688 22.8499 128.884 22.6323 128.884 22.1977V19.3931H128.508C128.369 19.6252 128.174 19.8605 127.924 20.1C127.673 20.3391 127.339 20.5384 126.921 20.6976C126.504 20.8573 125.974 20.9366 125.335 20.9366C124.485 20.9366 123.703 20.7228 122.986 20.2957C122.269 19.8685 121.695 19.2522 121.264 18.4478C120.832 17.6433 120.616 16.676 120.616 15.5452ZM126.087 18.5453C126.893 18.5453 127.569 18.2773 128.111 17.7409C128.654 17.2049 128.925 16.4514 128.925 15.4798V15.2622C128.925 14.2766 128.657 13.5199 128.122 12.9904C127.585 12.4614 126.907 12.1967 126.086 12.1967C125.265 12.1967 124.604 12.4614 124.061 12.9904C123.518 13.5194 123.247 14.2766 123.247 15.2622V15.4798C123.247 16.4509 123.518 17.2049 124.061 17.7409C124.604 18.2773 125.279 18.5453 126.086 18.5453H126.087Z" fill="black"/>
<path d="M134.02 20.8932V10.1103H136.609V11.3279H136.984C137.137 10.8933 137.391 10.5744 137.746 10.3713C138.101 10.1687 138.515 10.0669 138.988 10.0669H140.241V12.5016H138.947C138.279 12.5016 137.729 12.6865 137.297 13.0563C136.866 13.4261 136.65 13.9947 136.65 14.7627V20.8932H134.02Z" fill="black"/>
<path d="M146.421 21.1976C145.39 21.1976 144.465 20.98 143.644 20.5454C142.822 20.1107 142.175 19.4799 141.702 18.6541C141.229 17.8282 140.992 16.8351 140.992 15.6759V15.3281C140.992 14.1689 141.229 13.1758 141.702 12.3499C142.175 11.524 142.823 10.8933 143.644 10.4586C144.465 10.024 145.39 9.8064 146.421 9.8064C147.451 9.8064 148.376 10.024 149.197 10.4586C150.019 10.8933 150.666 11.524 151.139 12.3499C151.612 13.1758 151.849 14.1689 151.849 15.3281V15.6759C151.849 16.8357 151.612 17.8282 151.139 18.6541C150.666 19.4799 150.019 20.1107 149.197 20.5454C148.376 20.98 147.451 21.1976 146.421 21.1976ZM146.421 18.7629C147.228 18.7629 147.896 18.4912 148.425 17.9477C148.954 17.4043 149.218 16.625 149.218 15.6105V15.3929C149.218 14.3784 148.957 13.5997 148.435 13.0557C147.913 12.5123 147.242 12.2406 146.421 12.2406C145.6 12.2406 144.945 12.5123 144.417 13.0557C143.888 13.5992 143.623 14.3784 143.623 15.3929V15.6105C143.623 16.625 143.888 17.4043 144.417 17.9477C144.946 18.4912 145.614 18.7629 146.421 18.7629Z" fill="black"/>
<path d="M155.732 20.8933L152.434 10.1104H155.231L157.632 18.8932H158.008L160.409 10.1104H163.207L159.908 20.8933H155.732Z" fill="black"/>
<path d="M169.01 21.1976C167.98 21.1976 167.072 20.9693 166.285 20.5127C165.499 20.0561 164.886 19.4114 164.448 18.578C164.009 17.7446 163.79 16.7628 163.79 15.632V15.371C163.79 14.2407 164.006 13.2589 164.437 12.4255C164.868 11.5922 165.474 10.9474 166.254 10.4908C167.033 10.0342 167.937 9.80591 168.968 9.80591C169.998 9.80591 170.867 10.0417 171.619 10.5128C172.37 10.9839 172.955 11.6361 173.372 12.4695C173.79 13.3028 173.999 14.2702 173.999 15.3715V16.3062H166.462C166.49 17.0452 166.754 17.6471 167.255 18.1107C167.756 18.5748 168.368 18.8063 169.092 18.8063C169.816 18.8063 170.373 18.6396 170.721 18.3063C171.068 17.9729 171.333 17.6037 171.514 17.1974L173.664 18.3717C173.469 18.7489 173.188 19.1579 172.818 19.6C172.449 20.0422 171.959 20.4189 171.346 20.7303C170.733 21.0417 169.955 21.1976 169.008 21.1976H169.01ZM166.483 14.2627H171.327C171.271 13.6399 171.031 13.1399 170.607 12.7626C170.182 12.3859 169.629 12.1972 168.947 12.1972C168.265 12.1972 167.674 12.3859 167.256 12.7626C166.839 13.1399 166.581 13.6399 166.484 14.2627H166.483Z" fill="black"/>
<path d="M81.994 38.805C81.2559 38.805 80.5952 38.671 80.0103 38.403C79.4258 38.135 78.9631 37.7438 78.6225 37.2288C78.281 36.7144 78.1108 36.0873 78.1108 35.3484C78.1108 34.6092 78.281 33.9899 78.6225 33.4897C78.9631 32.9898 79.4364 32.6131 80.0417 32.3593C80.6476 32.1058 81.3392 31.9789 82.1191 31.9789H84.9585V31.37C84.9585 30.8631 84.8052 30.4462 84.4993 30.1203C84.1931 29.7945 83.7064 29.631 83.0377 29.631C82.3692 29.631 81.8961 29.787 81.576 30.0983C81.2553 30.4102 81.0469 30.8122 80.9497 31.3049L78.5276 30.4569C78.6948 29.9065 78.9625 29.4027 79.3315 28.9461C79.7 28.4895 80.1947 28.1202 80.8139 27.8373C81.4328 27.5548 82.1881 27.4133 83.0789 27.4133C84.4427 27.4133 85.5217 27.7687 86.3146 28.4788C87.1078 29.1894 87.505 30.2179 87.505 31.5658V35.5874C87.505 36.0221 87.7001 36.2395 88.0899 36.2395H88.9252V38.5006H87.1716C86.6564 38.5006 86.2319 38.3703 85.8978 38.1094C85.5638 37.8485 85.3966 37.5005 85.3966 37.0661V37.0441H85.0003C84.9446 37.2183 84.8192 37.4465 84.6244 37.729C84.4294 38.0115 84.1232 38.2616 83.7058 38.4786C83.2884 38.6963 82.7172 38.8044 81.994 38.8044V38.805ZM82.4531 36.5875C83.1906 36.5875 83.7924 36.3735 84.2589 35.9465C84.7255 35.5192 84.9585 34.9501 84.9585 34.2393V34.022H82.307C81.8194 34.022 81.437 34.1306 81.1587 34.3477C80.8797 34.5654 80.7413 34.8698 80.7413 35.261C80.7413 35.6522 80.8874 35.9715 81.1791 36.2176C81.4717 36.464 81.8962 36.5875 82.4531 36.5875Z" fill="black"/>
<path d="M95.5008 38.805C94.4989 38.805 93.5909 38.5873 92.7761 38.1529C91.9618 37.7182 91.318 37.0874 90.8452 36.2614C90.3721 35.4358 90.1353 34.4357 90.1353 33.2615V32.957C90.1353 31.7828 90.3721 30.7833 90.8452 29.9569C91.318 29.131 91.9618 28.5002 92.7761 28.0656C93.5903 27.6309 94.4983 27.4133 95.5008 27.4133C96.5033 27.4133 97.3383 27.5945 98.0479 27.9568C98.7576 28.3191 99.332 28.8159 99.7705 29.4461C100.209 30.0764 100.497 30.7902 100.637 31.5871L98.0897 32.1527C98.034 31.718 97.9086 31.3268 97.7139 30.9785C97.5188 30.6305 97.244 30.3556 96.8895 30.1525C96.5344 29.9499 96.0927 29.8481 95.5636 29.8481C95.0345 29.8481 94.5579 29.9676 94.134 30.2071C93.7092 30.4462 93.3751 30.8015 93.1318 31.2724C92.8878 31.7436 92.7663 32.3198 92.7663 33.0009V33.2186C92.7663 33.8997 92.8878 34.4765 93.1318 34.947C93.3751 35.4179 93.7092 35.7726 94.134 36.0122C94.5579 36.2512 95.0345 36.3707 95.5636 36.3707C96.3569 36.3707 96.9589 36.1571 97.3697 35.73C97.7797 35.3027 98.0408 34.7405 98.1526 34.0448L100.699 34.6753C100.518 35.4438 100.209 36.1425 99.7705 36.7733C99.332 37.4035 98.7576 37.9003 98.0479 38.2622C97.3383 38.6244 96.4891 38.8056 95.5008 38.8056V38.805Z" fill="black"/>
<path d="M106.504 38.5006C105.822 38.5006 105.268 38.2799 104.844 37.8377C104.419 37.3956 104.207 36.8049 104.207 36.0661V29.9789H101.618V27.7178H104.207V24.3699H106.838V27.7178H109.677V29.9789H106.838V35.5881C106.838 36.0225 107.033 36.2402 107.422 36.2402H109.426V38.5013H106.504V38.5006Z" fill="black"/>
<path d="M113.372 26.4572C112.899 26.4572 112.499 26.298 112.172 25.9791C111.845 25.6608 111.682 25.24 111.682 24.718C111.682 24.196 111.846 23.7764 112.172 23.4576C112.499 23.1387 112.899 22.9795 113.372 22.9795C113.846 22.9795 114.263 23.1392 114.584 23.4576C114.904 23.7764 115.064 24.1966 115.064 24.718C115.064 25.2395 114.904 25.6608 114.584 25.9791C114.263 26.298 113.86 26.4572 113.372 26.4572ZM112.058 38.5011V27.7182H114.688V38.5011H112.058Z" fill="black"/>
<path d="M122.537 38.8049C121.507 38.8049 120.582 38.5875 119.76 38.1528C118.939 37.7181 118.292 37.0873 117.819 36.2613C117.346 35.4357 117.109 34.4424 117.109 33.2833V32.9356C117.109 31.7762 117.346 30.7832 117.819 29.9573C118.292 29.1315 118.939 28.5007 119.76 28.066C120.582 27.6314 121.507 27.4138 122.537 27.4138C123.568 27.4138 124.493 27.6314 125.314 28.066C126.136 28.5007 126.783 29.1315 127.256 29.9573C127.729 30.7832 127.966 31.7762 127.966 32.9356V33.2833C127.966 34.443 127.729 35.4357 127.256 36.2613C126.783 37.0873 126.136 37.7181 125.314 38.1528C124.493 38.5875 123.568 38.8049 122.537 38.8049ZM122.537 36.3703C123.345 36.3703 124.013 36.0986 124.542 35.5552C125.071 35.0118 125.335 34.2324 125.335 33.2178V33.0005C125.335 31.9859 125.074 31.2072 124.552 30.6631C124.03 30.1197 123.359 29.848 122.537 29.848C121.717 29.848 121.062 30.1197 120.533 30.6631C120.004 31.2066 119.74 31.9859 119.74 33.0005V33.2178C119.74 34.2324 120.004 35.0118 120.533 35.5552C121.062 36.0986 121.731 36.3703 122.537 36.3703Z" fill="black"/>
<path d="M130.388 38.5006V27.7178H132.976V29.1311H133.352C133.519 28.7543 133.832 28.3958 134.292 28.0549C134.75 27.7146 135.447 27.5442 136.379 27.5442C137.186 27.5442 137.893 27.7366 138.498 28.1203C139.104 28.5046 139.574 29.0335 139.908 29.7072C140.242 30.3814 140.409 31.1675 140.409 32.0657V38.5006H137.778V32.2828C137.778 31.4713 137.587 30.8627 137.204 30.457C136.821 30.0513 136.275 29.8481 135.565 29.8481C134.758 29.8481 134.132 30.1274 133.686 30.6853C133.24 31.2432 133.018 32.0225 133.018 33.0226V38.5006H130.388Z" fill="black"/>
<path d="M78.7786 60.4568V45.3259H81.3675V46.6304H81.7431C81.9799 46.2102 82.3484 45.8372 82.8496 45.5109C83.3512 45.1845 84.0679 45.0215 85.0005 45.0215C85.8358 45.0215 86.608 45.2355 87.3176 45.6631C88.0275 46.0907 88.5981 46.7172 89.0294 47.5435C89.4607 48.3694 89.6768 49.3695 89.6768 50.5437V50.8914C89.6768 52.0656 89.4607 53.0654 89.0294 53.8916C88.5981 54.7176 88.0275 55.345 87.3176 55.7723C86.608 56.1993 85.8355 56.4133 85.0005 56.4133C84.3741 56.4133 83.8489 56.337 83.4241 56.1848C82.9996 56.0326 82.6587 55.8371 82.4014 55.5982C82.1435 55.3592 81.9387 55.1162 81.7855 54.8698H81.4096V60.4568H78.7792H78.7786ZM84.2069 54.0219C85.0283 54.0219 85.7068 53.7502 86.2425 53.2068C86.7784 52.6634 87.0464 51.8695 87.0464 50.8262V50.6085C87.0464 49.5652 86.7745 48.7714 86.2321 48.228C85.6893 47.6846 85.0141 47.4129 84.2075 47.4129C83.401 47.4129 82.7251 47.6846 82.1821 48.228C81.6393 48.7714 81.3681 49.5652 81.3681 50.6085V50.8262C81.3681 51.8695 81.6393 52.6634 82.1821 53.2068C82.7251 53.7502 83.4004 54.0219 84.2075 54.0219H84.2069Z" fill="black"/>
<path d="M91.2632 56.1087V45.3258H93.8518V46.5432H94.2277C94.3804 46.1088 94.6347 45.7898 94.9892 45.5867C95.3443 45.3841 95.7581 45.2822 96.2318 45.2822H97.4845V47.7171H96.19C95.5219 47.7171 94.9717 47.9018 94.5404 48.2717C94.1091 48.6416 93.8936 49.21 93.8936 49.9782V56.1087H91.2632Z" fill="black"/>
<path d="M104.082 56.4132C103.052 56.4132 102.126 56.1955 101.305 55.7607C100.484 55.3263 99.8368 54.6955 99.3637 53.8696C98.8906 53.0436 98.6541 52.0506 98.6541 50.8912V50.5436C98.6541 49.3845 98.8906 48.3912 99.3637 47.5656C99.8368 46.7396 100.484 46.1088 101.305 45.6741C102.126 45.2393 103.052 45.022 104.082 45.022C105.112 45.022 106.038 45.2393 106.859 45.6741C107.68 46.1088 108.327 46.7396 108.801 47.5656C109.274 48.3912 109.511 49.3845 109.511 50.5436V50.8912C109.511 52.0513 109.273 53.0436 108.801 53.8696C108.328 54.6955 107.68 55.3263 106.859 55.7607C106.038 56.1955 105.112 56.4132 104.082 56.4132ZM104.082 53.9783C104.889 53.9783 105.557 53.7065 106.086 53.1631C106.615 52.6197 106.879 51.8404 106.879 50.8261V50.6084C106.879 49.5938 106.619 48.8151 106.097 48.2711C105.575 47.7277 104.903 47.456 104.082 47.456C103.261 47.456 102.607 47.7277 102.078 48.2711C101.549 48.8148 101.285 49.5938 101.285 50.6084V50.8261C101.285 51.8404 101.549 52.6197 102.078 53.1631C102.607 53.7065 103.275 53.9783 104.082 53.9783Z" fill="black"/>
<path d="M110.011 60.4567V58.1088H111.389C111.778 58.1088 111.974 57.8911 111.974 57.4564V45.3257H114.604V58.0218C114.604 58.7609 114.395 59.3516 113.978 59.7937C113.56 60.2359 113.003 60.4567 112.308 60.4567H110.011ZM113.289 44.0648C112.815 44.0648 112.415 43.9054 112.088 43.5865C111.761 43.2681 111.598 42.8476 111.598 42.3255C111.598 41.8037 111.762 41.3841 112.088 41.0651C112.415 40.7462 112.815 40.5872 113.289 40.5872C113.762 40.5872 114.18 40.7468 114.5 41.0651C114.82 41.3841 114.98 41.804 114.98 42.3255C114.98 42.847 114.82 43.2681 114.5 43.5865C114.18 43.9054 113.776 44.0648 113.289 44.0648Z" fill="black"/>
<path d="M121.828 56.4133C120.797 56.4133 119.889 56.1848 119.103 55.7281C118.316 55.2718 117.704 54.6271 117.266 53.7934C116.827 52.9601 116.608 51.9785 116.608 50.8475V50.5866C116.608 49.4562 116.823 48.4744 117.255 47.641C117.686 46.8077 118.291 46.163 119.071 45.7063C119.851 45.2497 120.755 45.0215 121.786 45.0215C122.816 45.0215 123.685 45.2574 124.436 45.7282C125.188 46.1994 125.773 46.8518 126.19 47.6852C126.607 48.5185 126.816 49.4859 126.816 50.5872V51.5219H119.28C119.307 52.2607 119.572 52.8628 120.072 53.3263C120.574 53.7903 121.186 54.0219 121.91 54.0219C122.634 54.0219 123.191 53.8552 123.538 53.5217C123.886 53.1886 124.151 52.8193 124.331 52.413L126.482 53.5872C126.287 53.9645 126.005 54.3736 125.636 54.8157C125.267 55.2579 124.777 55.6346 124.164 55.9458C123.551 56.2574 122.773 56.4133 121.826 56.4133H121.828ZM119.301 49.4782H124.145C124.089 48.8554 123.849 48.3555 123.425 47.9782C123 47.6015 122.447 47.4129 121.765 47.4129C121.083 47.4129 120.492 47.6015 120.074 47.9782C119.657 48.3555 119.398 48.8554 119.301 49.4782Z" fill="black"/>
<path d="M133.602 56.4133C132.6 56.4133 131.692 56.1956 130.878 55.7609C130.063 55.3264 129.42 54.6956 128.946 53.8697C128.474 53.0438 128.237 52.0437 128.237 50.8695V50.565C128.237 49.3908 128.474 48.3913 128.946 47.5651C129.42 46.7391 130.063 46.1083 130.878 45.6736C131.692 45.2392 132.6 45.0215 133.602 45.0215C134.605 45.0215 135.44 45.2027 136.15 45.5649C136.859 45.9271 137.434 46.4239 137.872 47.0544C138.31 47.6846 138.599 48.3984 138.738 49.1953L136.191 49.7607C136.136 49.3259 136.01 48.9347 135.815 48.5865C135.62 48.2388 135.346 47.9637 134.991 47.7605C134.636 47.558 134.194 47.4561 133.665 47.4561C133.136 47.4561 132.659 47.5759 132.235 47.8152C131.811 48.0545 131.477 48.4095 131.233 48.8807C130.989 49.3519 130.868 49.928 130.868 50.6092V50.8265C130.868 51.508 130.989 52.0844 131.233 52.555C131.477 53.0262 131.811 53.3809 132.235 53.6205C132.659 53.8595 133.136 53.979 133.665 53.979C134.458 53.979 135.06 53.765 135.471 53.338C135.881 52.911 136.142 52.3487 136.254 51.6531L138.801 52.2833C138.62 53.0518 138.31 53.7508 137.872 54.3816C137.434 55.0118 136.859 55.5086 136.15 55.8702C135.44 56.2327 134.59 56.4133 133.602 56.4133Z" fill="black"/>
<path d="M144.605 56.1086C143.923 56.1086 143.369 55.8879 142.945 55.4457C142.521 55.0036 142.309 54.4129 142.309 53.6737V47.5868H139.72V45.3257H142.309V41.9778H144.939V45.3257H147.779V47.5868H144.939V53.1958C144.939 53.6305 145.134 53.8479 145.524 53.8479H147.528V56.1089H144.605V56.1086Z" fill="black"/>
</svg>
